<svg xmlns="http://w3.org" viewBox="0 0 440 500" width="100%" height="100%">
    <defs>
        <style>
            @import url('https://googleapis.com');
            .bg { fill: #0d1117; rx: 16px; }
            .title { font-family: 'Poppins', sans-serif; font-weight: 700; font-size: 22px; fill: url(#title-grad); }
            .subtitle { font-family: 'Share Tech Tech', sans-serif; font-size: 11px; fill: #8b949e; letter-spacing: 2px; }
            .grid-bg { fill: #161b22; stroke: #30363d; stroke-width: 1px; rx: 8px; }
            .cell-thin { stroke: #30363d; stroke-width: 1; }
            .cell-thick { stroke: #58a6ff; stroke-width: 2.5; stroke-linecap: round; }
            .number { font-family: 'Poppins', sans-serif; font-weight: 600; font-size: 18px; fill: #adbac7; text-anchor: middle; dominant-baseline: central; }
            .fixed-num { fill: #ff7b72; font-weight: 700; }
        </style>
        <linearGradient id="title-grad" x1="0%" y1="0%" x2="100%" y2="0%">
            <stop offset="0%" stop-color="#58a6ff" />
            <stop offset="100%" stop-color="#bc8cff" />
        </linearGradient>
    </defs>

    <!-- Canvas Background -->
    <rect width="440" height="500" class="bg" />

    <!-- Header Content -->
    <text x="40" y="48" class="title">SUDOKU OF THE DAY</text>
    <text x="40" y="68" class="subtitle">AUTOMATED DAILY PUZZLE</text>

    <!-- Inner Grid Board Backdrop -->
    <rect x="40" y="90" width="360" height="360" class="grid-bg" />
    <rect x="40" y="90" width="40" height="40" fill="none" class="cell-thin" />
<text x="60.0" y="110.0" class="number fixed-num">5</text>
<rect x="80" y="90" width="40" height="40" fill="none" class="cell-thin" />
<rect x="120" y="90" width="40" height="40" fill="none" class="cell-thin" />
<text x="140.0" y="110.0" class="number fixed-num">2</text>
<rect x="160" y="90" width="40" height="40" fill="none" class="cell-thin" />
<rect x="200" y="90" width="40" height="40" fill="none" class="cell-thin" />
<rect x="240" y="90" width="40" height="40" fill="none" class="cell-thin" />
<rect x="280" y="90" width="40" height="40" fill="none" class="cell-thin" />
<text x="300.0" y="110.0" class="number fixed-num">6</text>
<rect x="320" y="90" width="40" height="40" fill="none" class="cell-thin" />
<rect x="360" y="90" width="40" height="40" fill="none" class="cell-thin" />
<text x="380.0" y="110.0" class="number fixed-num">1</text>
<rect x="40" y="130" width="40" height="40" fill="none" class="cell-thin" />
<text x="60.0" y="150.0" class="number">4</text>
<rect x="80" y="130" width="40" height="40" fill="none" class="cell-thin" />
<rect x="120" y="130" width="40" height="40" fill="none" class="cell-thin" />
<rect x="160" y="130" width="40" height="40" fill="none" class="cell-thin" />
<text x="180.0" y="150.0" class="number">7</text>
<rect x="200" y="130" width="40" height="40" fill="none" class="cell-thin" />
<text x="220.0" y="150.0" class="number fixed-num">6</text>
<rect x="240" y="130" width="40" height="40" fill="none" class="cell-thin" />
<text x="260.0" y="150.0" class="number fixed-num">1</text>
<rect x="280" y="130" width="40" height="40" fill="none" class="cell-thin" />
<text x="300.0" y="150.0" class="number">2</text>
<rect x="320" y="130" width="40" height="40" fill="none" class="cell-thin" />
<text x="340.0" y="150.0" class="number fixed-num">5</text>
<rect x="360" y="130" width="40" height="40" fill="none" class="cell-thin" />
<text x="380.0" y="150.0" class="number">8</text>
<rect x="40" y="170" width="40" height="40" fill="none" class="cell-thin" />
<rect x="80" y="170" width="40" height="40" fill="none" class="cell-thin" />
<rect x="120" y="170" width="40" height="40" fill="none" class="cell-thin" />
<rect x="160" y="170" width="40" height="40" fill="none" class="cell-thin" />
<rect x="200" y="170" width="40" height="40" fill="none" class="cell-thin" />
<text x="220.0" y="190.0" class="number">2</text>
<rect x="240" y="170" width="40" height="40" fill="none" class="cell-thin" />
<text x="260.0" y="190.0" class="number fixed-num">8</text>
<rect x="280" y="170" width="40" height="40" fill="none" class="cell-thin" />
<rect x="320" y="170" width="40" height="40" fill="none" class="cell-thin" />
<rect x="360" y="170" width="40" height="40" fill="none" class="cell-thin" />
<text x="380.0" y="190.0" class="number">9</text>
<rect x="40" y="210" width="40" height="40" fill="none" class="cell-thin" />
<rect x="80" y="210" width="40" height="40" fill="none" class="cell-thin" />
<text x="100.0" y="230.0" class="number fixed-num">4</text>
<rect x="120" y="210" width="40" height="40" fill="none" class="cell-thin" />
<text x="140.0" y="230.0" class="number">9</text>
<rect x="160" y="210" width="40" height="40" fill="none" class="cell-thin" />
<text x="180.0" y="230.0" class="number">3</text>
<rect x="200" y="210" width="40" height="40" fill="none" class="cell-thin" />
<rect x="240" y="210" width="40" height="40" fill="none" class="cell-thin" />
<text x="260.0" y="230.0" class="number fixed-num">7</text>
<rect x="280" y="210" width="40" height="40" fill="none" class="cell-thin" />
<rect x="320" y="210" width="40" height="40" fill="none" class="cell-thin" />
<rect x="360" y="210" width="40" height="40" fill="none" class="cell-thin" />
<rect x="40" y="250" width="40" height="40" fill="none" class="cell-thin" />
<text x="60.0" y="270.0" class="number fixed-num">3</text>
<rect x="80" y="250" width="40" height="40" fill="none" class="cell-thin" />
<text x="100.0" y="270.0" class="number">7</text>
<rect x="120" y="250" width="40" height="40" fill="none" class="cell-thin" />
<rect x="160" y="250" width="40" height="40" fill="none" class="cell-thin" />
<rect x="200" y="250" width="40" height="40" fill="none" class="cell-thin" />
<text x="220.0" y="270.0" class="number fixed-num">8</text>
<rect x="240" y="250" width="40" height="40" fill="none" class="cell-thin" />
<text x="260.0" y="270.0" class="number fixed-num">5</text>
<rect x="280" y="250" width="40" height="40" fill="none" class="cell-thin" />
<rect x="320" y="250" width="40" height="40" fill="none" class="cell-thin" />
<rect x="360" y="250" width="40" height="40" fill="none" class="cell-thin" />
<rect x="40" y="290" width="40" height="40" fill="none" class="cell-thin" />
<rect x="80" y="290" width="40" height="40" fill="none" class="cell-thin" />
<rect x="120" y="290" width="40" height="40" fill="none" class="cell-thin" />
<rect x="160" y="290" width="40" height="40" fill="none" class="cell-thin" />
<rect x="200" y="290" width="40" height="40" fill="none" class="cell-thin" />
<rect x="240" y="290" width="40" height="40" fill="none" class="cell-thin" />
<rect x="280" y="290" width="40" height="40" fill="none" class="cell-thin" />
<text x="300.0" y="310.0" class="number fixed-num">1</text>
<rect x="320" y="290" width="40" height="40" fill="none" class="cell-thin" />
<rect x="360" y="290" width="40" height="40" fill="none" class="cell-thin" />
<text x="380.0" y="310.0" class="number fixed-num">7</text>
<rect x="40" y="330" width="40" height="40" fill="none" class="cell-thin" />
<rect x="80" y="330" width="40" height="40" fill="none" class="cell-thin" />
<text x="100.0" y="350.0" class="number fixed-num">3</text>
<rect x="120" y="330" width="40" height="40" fill="none" class="cell-thin" />
<rect x="160" y="330" width="40" height="40" fill="none" class="cell-thin" />
<rect x="200" y="330" width="40" height="40" fill="none" class="cell-thin" />
<rect x="240" y="330" width="40" height="40" fill="none" class="cell-thin" />
<text x="260.0" y="350.0" class="number fixed-num">6</text>
<rect x="280" y="330" width="40" height="40" fill="none" class="cell-thin" />
<rect x="320" y="330" width="40" height="40" fill="none" class="cell-thin" />
<text x="340.0" y="350.0" class="number fixed-num">8</text>
<rect x="360" y="330" width="40" height="40" fill="none" class="cell-thin" />
<rect x="40" y="370" width="40" height="40" fill="none" class="cell-thin" />
<rect x="80" y="370" width="40" height="40" fill="none" class="cell-thin" />
<rect x="120" y="370" width="40" height="40" fill="none" class="cell-thin" />
<rect x="160" y="370" width="40" height="40" fill="none" class="cell-thin" />
<rect x="200" y="370" width="40" height="40" fill="none" class="cell-thin" />
<rect x="240" y="370" width="40" height="40" fill="none" class="cell-thin" />
<text x="260.0" y="390.0" class="number fixed-num">3</text>
<rect x="280" y="370" width="40" height="40" fill="none" class="cell-thin" />
<rect x="320" y="370" width="40" height="40" fill="none" class="cell-thin" />
<rect x="360" y="370" width="40" height="40" fill="none" class="cell-thin" />
<text x="380.0" y="390.0" class="number fixed-num">6</text>
<rect x="40" y="410" width="40" height="40" fill="none" class="cell-thin" />
<text x="60.0" y="430.0" class="number">1</text>
<rect x="80" y="410" width="40" height="40" fill="none" class="cell-thin" />
<text x="100.0" y="430.0" class="number fixed-num">6</text>
<rect x="120" y="410" width="40" height="40" fill="none" class="cell-thin" />
<text x="140.0" y="430.0" class="number fixed-num">5</text>
<rect x="160" y="410" width="40" height="40" fill="none" class="cell-thin" />
<text x="180.0" y="430.0" class="number fixed-num">8</text>
<rect x="200" y="410" width="40" height="40" fill="none" class="cell-thin" />
<text x="220.0" y="430.0" class="number">4</text>
<rect x="240" y="410" width="40" height="40" fill="none" class="cell-thin" />
<text x="260.0" y="430.0" class="number">2</text>
<rect x="280" y="410" width="40" height="40" fill="none" class="cell-thin" />
<rect x="320" y="410" width="40" height="40" fill="none" class="cell-thin" />
<rect x="360" y="410" width="40" height="40" fill="none" class="cell-thin" />
<text x="380.0" y="430.0" class="number fixed-num">3</text>
<line x1="40" y1="90" x2="40" y2="450" class="cell-thick" />
<line x1="40" y1="90" x2="400" y2="90" class="cell-thick" />
<line x1="160" y1="90" x2="160" y2="450" class="cell-thick" />
<line x1="40" y1="210" x2="400" y2="210" class="cell-thick" />
<line x1="280" y1="90" x2="280" y2="450" class="cell-thick" />
<line x1="40" y1="330" x2="400" y2="330" class="cell-thick" />
<line x1="400" y1="90" x2="400" y2="450" class="cell-thick" />
<line x1="40" y1="450" x2="400" y2="450" class="cell-thick" />

</svg>